<svg id="visual" viewBox="0 0 900 450" width="900" height="450" xmlns="http://www.w3.org/2000/svg" xmlns:xlink="http://www.w3.org/1999/xlink" version="1.1"><rect x="0" y="0" width="900" height="450" fill="#636363"></rect><path d="M0 308L11.5 304.5C23 301 46 294 69 291.5C92 289 115 291 138.2 290.7C161.3 290.3 184.7 287.7 207.8 286.5C231 285.3 254 285.7 277 287.7C300 289.7 323 293.3 346 295.3C369 297.3 392 297.7 415.2 298.3C438.3 299 461.7 300 484.8 299.7C508 299.3 531 297.7 554 299.2C577 300.7 600 305.3 623 302.8C646 300.3 669 290.7 692.2 285.3C715.3 280 738.7 279 761.8 276.7C785 274.3 808 270.7 831 268.7C854 266.7 877 266.3 888.5 266.2L900 266L900 451L888.5 451C877 451 854 451 831 451C808 451 785 451 761.8 451C738.7 451 715.3 451 692.2 451C669 451 646 451 623 451C600 451 577 451 554 451C531 451 508 451 484.8 451C461.7 451 438.3 451 415.2 451C392 451 369 451 346 451C323 451 300 451 277 451C254 451 231 451 207.8 451C184.7 451 161.3 451 138.2 451C115 451 92 451 69 451C46 451 23 451 11.5 451L0 451Z" fill="#0a888c"></path><path d="M0 337L11.5 333.8C23 330.7 46 324.3 69 324.3C92 324.3 115 330.7 138.2 331C161.3 331.3 184.7 325.7 207.8 325.5C231 325.3 254 330.7 277 332.5C300 334.3 323 332.7 346 332.5C369 332.3 392 333.7 415.2 330.2C438.3 326.7 461.7 318.3 484.8 317.2C508 316 531 322 554 327C577 332 600 336 623 333.5C646 331 669 322 692.2 317C715.3 312 738.7 311 761.8 312.3C785 313.7 808 317.3 831 321.7C854 326 877 331 888.5 333.5L900 336L900 451L888.5 451C877 451 854 451 831 451C808 451 785 451 761.8 451C738.7 451 715.3 451 692.2 451C669 451 646 451 623 451C600 451 577 451 554 451C531 451 508 451 484.8 451C461.7 451 438.3 451 415.2 451C392 451 369 451 346 451C323 451 300 451 277 451C254 451 231 451 207.8 451C184.7 451 161.3 451 138.2 451C115 451 92 451 69 451C46 451 23 451 11.5 451L0 451Z" fill="#009b67"></path><path d="M0 334L11.5 334C23 334 46 334 69 337.5C92 341 115 348 138.2 349.2C161.3 350.3 184.7 345.7 207.8 348.5C231 351.3 254 361.7 277 361.8C300 362 323 352 346 350C369 348 392 354 415.2 355.3C438.3 356.7 461.7 353.3 484.8 353.7C508 354 531 358 554 359.8C577 361.7 600 361.3 623 359.2C646 357 669 353 692.2 353.2C715.3 353.3 738.7 357.7 761.8 354.7C785 351.7 808 341.3 831 340.8C854 340.3 877 349.7 888.5 354.3L900 359L900 451L888.5 451C877 451 854 451 831 451C808 451 785 451 761.8 451C738.7 451 715.3 451 692.2 451C669 451 646 451 623 451C600 451 577 451 554 451C531 451 508 451 484.8 451C461.7 451 438.3 451 415.2 451C392 451 369 451 346 451C323 451 300 451 277 451C254 451 231 451 207.8 451C184.7 451 161.3 451 138.2 451C115 451 92 451 69 451C46 451 23 451 11.5 451L0 451Z" fill="#05a12e"></path><path d="M0 374L11.5 377.2C23 380.3 46 386.7 69 390.7C92 394.7 115 396.3 138.2 395.3C161.3 394.3 184.7 390.7 207.8 388C231 385.3 254 383.7 277 382.8C300 382 323 382 346 379.7C369 377.3 392 372.7 415.2 374.2C438.3 375.7 461.7 383.3 484.8 388C508 392.7 531 394.3 554 390.8C577 387.3 600 378.7 623 376.3C646 374 669 378 692.2 379.3C715.3 380.7 738.7 379.3 761.8 377.7C785 376 808 374 831 374.5C854 375 877 378 888.5 379.5L900 381L900 451L888.5 451C877 451 854 451 831 451C808 451 785 451 761.8 451C738.7 451 715.3 451 692.2 451C669 451 646 451 623 451C600 451 577 451 554 451C531 451 508 451 484.8 451C461.7 451 438.3 451 415.2 451C392 451 369 451 346 451C323 451 300 451 277 451C254 451 231 451 207.8 451C184.7 451 161.3 451 138.2 451C115 451 92 451 69 451C46 451 23 451 11.5 451L0 451Z" fill="#009b67"></path><path d="M0 416L11.5 415.8C23 415.7 46 415.3 69 413.8C92 412.3 115 409.7 138.2 409.2C161.3 408.7 184.7 410.3 207.8 413.3C231 416.3 254 420.7 277 419.8C300 419 323 413 346 410.8C369 408.7 392 410.3 415.2 410.7C438.3 411 461.7 410 484.8 409.5C508 409 531 409 554 408C577 407 600 405 623 404.2C646 403.3 669 403.7 692.2 404.7C715.3 405.7 738.7 407.3 761.8 410C785 412.7 808 416.3 831 417.2C854 418 877 416 888.5 415L900 414L900 451L888.5 451C877 451 854 451 831 451C808 451 785 451 761.8 451C738.7 451 715.3 451 692.2 451C669 451 646 451 623 451C600 451 577 451 554 451C531 451 508 451 484.8 451C461.7 451 438.3 451 415.2 451C392 451 369 451 346 451C323 451 300 451 277 451C254 451 231 451 207.8 451C184.7 451 161.3 451 138.2 451C115 451 92 451 69 451C46 451 23 451 11.5 451L0 451Z" fill="#0a888c"></path></svg>