<svg id="visual" viewBox="0 0 900 600" width="900" height="600" xmlns="http://www.w3.org/2000/svg" xmlns:xlink="http://www.w3.org/1999/xlink" version="1.1"><rect x="0" y="0" width="900" height="600" fill="#191919"></rect><path d="M0 357L129 406L257 350L386 442L514 401L643 384L771 408L900 431L900 601L771 601L643 601L514 601L386 601L257 601L129 601L0 601Z" fill="#b1ffb5"></path><path d="M0 396L129 450L257 421L386 446L514 448L643 432L771 460L900 422L900 601L771 601L643 601L514 601L386 601L257 601L129 601L0 601Z" fill="#a47611"></path><path d="M0 440L129 456L257 437L386 482L514 479L643 454L771 477L900 500L900 601L771 601L643 601L514 601L386 601L257 601L129 601L0 601Z" fill="#871400"></path><path d="M0 530L129 536L257 482L386 537L514 500L643 510L771 481L900 516L900 601L771 601L643 601L514 601L386 601L257 601L129 601L0 601Z" fill="#a47611"></path><path d="M0 541L129 548L257 547L386 539L514 563L643 530L771 541L900 569L900 601L771 601L643 601L514 601L386 601L257 601L129 601L0 601Z" fill="#b1ffb5"></path></svg>